inDegrees=yes
name=ik_lifting_orientations
DataType=double
version=3
OpenSimVersion=4.5-2024-01-10-34fd6af
endheader
time	pelvis_tilt	pelvis_list	pelvis_rotation	pelvis_tx	pelvis_ty	pelvis_tz	hip_flexion_r	hip_adduction_r	hip_rotation_r	knee_angle_r	knee_angle_r_beta	ankle_angle_r	subtalar_angle_r	mtp_angle_r	hip_flexion_l	hip_adduction_l	hip_rotation_l	knee_angle_l	knee_angle_l_beta	ankle_angle_l	subtalar_angle_l	mtp_angle_l	lumbar_extension	lumbar_bending	lumbar_rotation	arm_flex_r	arm_add_r	arm_rot_r	elbow_flex_r	pro_sup_r	wrist_flex_r	wrist_dev_r	arm_flex_l	arm_add_l	arm_rot_l	elbow_flex_l	pro_sup_l	wrist_flex_l	wrist_dev_l
1.9	0.8090878061700746	2.511679956542766	-84.38176667154687	0	0.9399999998679526	0	45.41237863920982	-10.15065104869125	0	60.76650146048337	1.060575525403378	-5.008949590523452	0	0	45.41237863920982	-10.15065104869125	0	60.76650146048337	1.060575525403378	-5.008949590523452	0	0	0.6801061365723263	-0.5615098106469837	-7.219187328340083	38.27762634763548	52.01548295846884	19.9922111630072	90.42784191143329	0.433980235705568	0	0	0	-11.33876336376836	0	89.59689618074145	0.433980235705568	0	0
1.91	0.8157651541602341	2.510454831978965	-84.38079752026333	0	0.9399999998679526	0	45.41203242389907	-10.15020810485932	0	60.76599763441151	1.060566731979566	-5.008915257178763	0	0	45.41203242389907	-10.15020810485932	0	60.76599763441151	1.060566731979566	-5.008915257178763	0	0	0.6757123479635055	-0.5723660665737806	-7.211366561020801	40.81125011217786	52.62271179390026	17.58304490641851	88.77105641176789	0.4337269149134131	0	0	0	-11.34033618711948	0	89.59713137770241	0.4337269149134131	0	0
1.92	-0.01851969876917445	2.421920846159411	-85.13793292515513	0	0.9399999998679526	0	45.41158648719991	-10.14963898199333	0	60.76534856478175	1.060555403577452	-5.008871190260509	0	0	45.41158648719991	-10.14963898199333	0	60.76534856478175	1.060555403577452	-5.008871190260509	0	0	1.78154497902	0.3760047976069393	-6.675209052868017	42.93869487010073	52.69814959251374	15.21881807432467	85.75913698087615	0.4334005317760949	0	0	0	-11.34236300648115	0	89.59743440976575	0.4334005317760949	0	0
1.93	-0.003573798634345084	2.418977444354474	-85.13507958650355	0	0.9399999998679526	0	45.4112497783467	-10.1492115730082	0	60.76485721678581	1.06054682793715	-5.008838149549464	0	0	45.4112497783467	-10.1492115730082	0	60.76485721678581	1.06054682793715	-5.008838149549464	0	0	2.395261964313537	-0.173940411779958	-7.164548052708231	47.74402969317716	53.81257644695726	11.108471639873	81.03119893854495	0.4331537963075389	0	0	0	-11.34389666008883	0	89.5976634925531	0.4331537963075389	0	0
1.94	0.7603291896118652	2.502438680925687	-85.99501188983723	0	0.9399999998679526	0	45.41080989830261	-10.14865351582714	0	60.76421609854265	1.060535638312912	-5.008795037370811	0	0	45.41080989830261	-10.14865351582714	0	60.76421609854265	1.060535638312912	-5.008795037370811	0	0	2.429410794319801	-0.9000901104851559	-6.280164345570682	51.48430715100017	54.33012494131981	7.639908575021892	77.81671636035497	0.4328315433169023	0	0	0	-11.345899127529	0	89.59796268996378	0.4328315433169023	0	0
1.95	-0.06144142131266159	2.428527291060642	-86.73970768025509	0	0.9399999998679526	0	45.41036938710257	-10.14809718199158	0	60.76357285279036	1.060524411556635	-5.008752120671112	0	0	45.41036938710257	-10.14809718199158	0	60.76357285279036	1.060524411556635	-5.008752120671112	0	0	2.414946019494761	-0.04422612619247127	-5.537619432254202	52.82357270342601	55.19104163033316	6.908892668887034	76.25161842125675	0.432508520544115	0	0	0	-11.34790785685804	0	89.59826260208513	0.432508520544115	0	0
1.96	0.01178344350179877	1.59715920203545	-86.77981648660091	0	0.9399999998679526	0	45.40596722671177	-10.14421851444127	0	60.7555094229065	1.060383678156158	-5.008476530240221	0	0	45.40596722671177	-10.14421851444127	0	60.7555094229065	1.060383678156158	-5.008476530240221	0	0	1.582702817607547	-0.06733466222743345	-5.495719435250018	57.4386820658547	54.64264553285931	2.770953483404742	72.0527241059055	0.428966326126859	0	0	0	-11.37160378377743	0	89.6015513722607	0.428966326126859	0	0
1.97	0.7900406892964702	1.669476175918083	-87.64152899336885	0	0.9399999998679526	0	45.40530204258894	-10.14339854591541	0	60.75453569744078	1.060366683440771	-5.008413811420401	0	0	45.40530204258894	-10.14339854591541	0	60.75453569744078	1.060366683440771	-5.008413811420401	0	0	1.621654098447987	-0.8261179976338007	-4.633700978634036	61.11822991983176	54.41537466377731	0.5360111838001939	66.73882299930209	0.428476642130621	0	0	0	-11.37465680874074	0	89.60200602185763	0.428476642130621	0	0
1.98	-0.05179242309899369	1.606742148636053	-88.3968266153958	0	0.9399999998679526	0	45.40466802780905	-10.14262553127224	0	60.75360275932888	1.060350400599001	-5.008354875911108	0	0	45.40466802780905	-10.14262553127224	0	60.75360275932888	1.060350400599001	-5.008354875911108	0	0	1.597203162944144	0.04489331241384632	-3.881704318979862	64.96450267220455	54.6213008296553	-2.471543589347333	62.90159187027477	0.4280087736205179	0	0	0	-11.37757928198834	0	89.6024404167632	0.4280087736205179	0	0
1.99	-0.05112207928602894	1.61005839108833	-88.39361891995951	0	0.9399999998679526	0	45.39052011785351	-10.13127007061233	0	60.72726155068332	1.059890659779181	-5.007575188056677	0	0	45.39052011785351	-10.13127007061233	0	60.72726155068332	1.059890659779181	-5.007575188056677	0	0	2.081682665532679	0.6884861114103459	-4.56692792707274	68.56567608603734	55.2779796299429	-4.272383904135282	55.01506580945534	0.4164614157057405	0	0	0	-11.45555221104518	0	89.61316162643071	0.4164614157057405	0	0
2	-0.04523238320707117	1.605656149850504	-88.39903980065336	0	0.9399999998679526	0	45.39009326721556	-10.13077913493479	0	60.72662740673433	1.05987959187934	-5.007538385818272	0	0	45.39009326721556	-10.13077913493479	0	60.72662740673433	1.05987959187934	-5.007538385818272	0	0	1.591883247321391	0.03170593008775568	-3.881634421826596	74.12326478572977	54.9144070920813	-8.831423254415386	51.22292195192674	0.4161426115466508	0	0	0	-11.45756126097065	0	89.61345762182117	0.4161426115466508	0	0
2.01	-0.06572162413870862	1.612593293297393	-88.37844870744973	0	0.9399999998679526	0	45.38966084904492	-10.13027626230144	0	60.72599201649099	1.059868502227558	-5.007500635289786	0	0	45.38966084904492	-10.13027626230144	0	60.72599201649099	1.059868502227558	-5.007500635289786	0	0	1.604532174680497	0.06539169736298359	-3.889730544507007	77.9598334848922	54.80114997672122	-11.46836008382969	45.82037935754782	0.4158209370053635	0	0	0	-11.4595813902288	0	89.61375628222738	0.4158209370053635	0	0
2.02	-0.06492613884024638	1.602219529454217	-88.40474839805562	0	0.9399999998679526	0	45.38925884260877	-10.12980489537206	0	60.72540636313946	1.059858280648299	-5.007465216382145	0	0	45.38925884260877	-10.12980489537206	0	60.72540636313946	1.059858280648299	-5.007465216382145	0	0	1.595555444861081	0.04548703747255318	-3.872930886788543	78.34062435854935	56.22987222062705	-12.00619296316662	44.18053265981099	0.4155228065312908	0	0	0	-11.46144861262576	0	89.61403308301757	0.4155228065312908	0	0
2.03	-0.04283635721248621	1.617272588848152	-88.40214827209805	0	0.9399999998679526	0	45.38884835238674	-10.12932572026706	0	60.72480736035177	1.059847826077425	-5.007429264375244	0	0	45.38884835238674	-10.12932572026706	0	60.72480736035177	1.059847826077425	-5.007429264375244	0	0	1.608500909938431	0.0284170834694694	-3.870763656404326	80.25082358776407	56.46597148074591	-13.87203341287769	42.19483664390139	0.4152181179324003	0	0	0	-11.46335816864813	0	89.61431597273466	0.4152181179324003	0	0
2.04	-0.04743973323838262	1.605690178611749	-88.39833569226035	0	0.9399999998679526	0	45.38764912735426	-10.12816275456517	0	60.72277769838161	1.059812401793343	-5.007345007102812	0	0	45.38764912735426	-10.12816275456517	0	60.72277769838161	1.059812401793343	-5.007345007102812	0	0	2.078831871758299	0.684215125028008	-4.555748354651033	82.22097635831626	55.95132941135661	-14.74365899474864	37.50793250155001	0.4142769789032771	0	0	0	-11.46953355462275	0	89.61518977842293	0.4142769789032771	0	0
2.05	-0.04531864326370448	1.604542182970101	-88.39660272179941	0	0.9399999998679526	0	45.38724358701835	-10.12769630039435	0	60.72218261923086	1.059802015702853	-5.007310172623464	0	0	45.38724358701835	-10.12769630039435	0	60.72218261923086	1.059802015702853	-5.007310172623464	0	0	2.079207392395053	0.6804019331066249	-4.558272106042598	84.29906570264708	56.04126474706027	-16.05346738037952	34.73113697499457	0.4139750328173338	0	0	0	-11.47143040438328	0	89.61547012184622	0.4139750328173338	0	0
2.06	-0.04456788079531751	1.603144707461954	-88.39922474414527	0	0.9399999998679526	0	45.38677351456737	-10.12715290514337	0	60.72149706961645	1.059790050604895	-5.007269580825573	0	0	45.38677351456737	-10.12715290514337	0	60.72149706961645	1.059790050604895	-5.007269580825573	0	0	2.076417018288427	0.6797079380686224	-4.554317471916509	82.58360072593609	56.12919631072363	-14.09566133413153	35.84748851018863	0.4136257792717199	0	0	0	-11.47362031078458	0	89.61579438812501	0.4136257792717199	0	0
2.07	-0.01709112123370054	1.597092493996237	-88.39000075715822	0	0.9399999998679526	0	45.38671357665909	-10.12708424436023	0	60.72140912587076	1.059788515696977	-5.007264462888006	0	0	45.38671357665909	-10.12708424436023	0	60.72140912587076	1.059788515696977	-5.007264462888006	0	0	2.090014674439352	0.6713250091164887	-4.576226458824018	82.43089124045578	55.90314020211429	-14.03772519987359	34.9286184435533	0.4135811359257226	0	0	0	-11.47390080975553	0	89.6158358374734	0.4135811359257226	0	0
2.08	-0.05099677970603968	1.604630320115152	-88.3961118118107	0	0.9399999998679526	0	45.38630148759753	-10.12660953038358	0	60.72080784125731	1.05977802130073	-5.007229051962542	0	0	45.38630148759753	-10.12660953038358	0	60.72080784125731	1.05977802130073	-5.007229051962542	0	0	1.56239664161744	0.05573329543425785	-5.244277573598617	84.51023983497005	56.57014359564817	-15.41637191710025	32.90641278152669	0.413274818288457	0	0	0	-11.47582207594855	0	89.61612023968513	0.413274818288457	0	0
2.09	-0.06469216000239685	1.596873572048303	-88.39511877443236	0	0.9399999998679526	0	45.38610227228511	-10.12638095350623	0	60.72051663650434	1.059772938818994	-5.007212022336279	0	0	45.38610227228511	-10.12638095350623	0	60.72051663650434	1.059772938818994	-5.007212022336279	0	0	0.9382061786513231	0.6223442260280565	-5.677402850082759	85.01987614799376	56.62127525907801	-14.91969524152007	30.98642471085211	0.4131266067044449	0	0	0	-11.47675231172312	0	89.61625784750598	0.4131266067044449	0	0
2.1	-0.0473172128220088	1.60226851376728	-88.39886580181506	0	0.9399999998679526	0	45.38598830207788	-10.12610995608242	0	60.72047105009526	1.059772143186061	-5.00718969965547	0	0	45.38598830207788	-10.12610995608242	0	60.72047105009526	1.059772143186061	-5.00718969965547	0	0	0.9349147314912921	0.5645090217552793	-5.655557191336376	89.07409846070227	55.07213369320299	-18.15182284704538	27.58436015744429	0.4130687352536204	0	0	0	-11.47697441234916	0	89.616311578439	0.4130687352536204	0	0
2.11	-0.0514666176333711	1.602830494866137	-88.40141374320483	0	0.9399999998679526	0	45.38567099754243	-10.12574776078255	0	60.72000648722658	1.05976403503442	-5.00716276936135	0	0	45.38567099754243	-10.12574776078255	0	60.72000648722658	1.05976403503442	-5.00716276936135	0	0	0.9312092761246533	0.5737747596397125	-5.656934469137011	90.838112918959	54.48079855378332	-19.16325493566447	24.90467253593323	0.412832470589067	0	0	0	-11.47845818837606	0	89.61653093960449	0.412832470589067	0	0
